<svg xmlns="http://www.w3.org/2000/svg" xmlns:xlink="http://www.w3.org/1999/xlink" width="200" zoomAndPan="magnify" viewBox="0 0 150 149.999998" height="200" preserveAspectRatio="xMidYMid meet" version="1.0"><path fill="#ff621f" d="M 51 111 C 44.371094 111 39.058594 116.371094 39.058594 123 C 39.058594 129.628906 44.371094 135 51 135 C 57.628906 135 63 129.628906 63 123 C 63 116.371094 57.628906 111 51 111 Z M 15 15 L 15 27 L 27 27 L 48.570312 72.511719 L 40.46875 87.210938 C 39.539062 88.949219 39 90.898438 39 93 C 39 99.628906 44.371094 105 51 105 L 123 105 L 123 93 L 53.550781 93 C 52.710938 93 52.050781 92.339844 52.050781 91.5 C 52.050781 91.230469 52.109375 90.988281 52.230469 90.78125 L 57.601562 81 L 102.300781 81 C 106.800781 81 110.730469 78.511719 112.800781 74.820312 L 134.25 35.878906 C 134.730469 35.039062 135 34.050781 135 33 C 135 29.671875 132.300781 27 129 27 L 40.289062 27 L 34.589844 15 Z M 111 111 C 104.371094 111 99.058594 116.371094 99.058594 123 C 99.058594 129.628906 104.371094 135 111 135 C 117.628906 135 123 129.628906 123 123 C 123 116.371094 117.628906 111 111 111 Z M 111 111 " fill-opacity="1" fill-rule="nonzero"/></svg>