<svg xmlns="http://www.w3.org/2000/svg" xmlns:xlink="http://www.w3.org/1999/xlink" width="200" zoomAndPan="magnify" viewBox="0 0 150 149.999998" height="200" preserveAspectRatio="xMidYMid meet" version="1.0"><defs><clipPath id="9fc46759ff"><path d="M 15 16.648438 L 134.996094 16.648438 L 134.996094 133.644531 L 15 133.644531 Z M 15 16.648438 " clip-rule="nonzero"/></clipPath></defs><g clip-path="url(#9fc46759ff)"><path fill="#ff621f" d="M 73.523438 17.292969 L 15.328125 130.988281 C 14.996094 131.632812 15.105469 132.410156 15.59375 132.941406 C 16.082031 133.472656 16.847656 133.644531 17.515625 133.371094 L 75.058594 109.761719 L 132.601562 133.371094 C 133.269531 133.644531 134.035156 133.472656 134.523438 132.941406 C 134.824219 132.617188 134.980469 132.199219 134.980469 131.773438 C 134.980469 131.507812 134.917969 131.238281 134.789062 130.988281 L 76.59375 17.292969 C 76.296875 16.714844 75.707031 16.351562 75.058594 16.351562 C 74.410156 16.351562 73.816406 16.714844 73.523438 17.292969 Z M 73.523438 17.292969 " fill-opacity="1" fill-rule="nonzero"/></g></svg>