<svg xmlns="http://www.w3.org/2000/svg" xmlns:xlink="http://www.w3.org/1999/xlink" width="200" zoomAndPan="magnify" viewBox="0 0 150 149.999998" height="200" preserveAspectRatio="xMidYMid meet" version="1.0"><defs><clipPath id="31d058a343"><path d="M 7 17.84375 L 143 17.84375 L 143 137.84375 L 7 137.84375 Z M 7 17.84375 " clip-rule="nonzero"/></clipPath></defs><g clip-path="url(#31d058a343)"><path fill="#ff621f" d="M 74.96875 17.84375 C 73.742188 17.84375 72.65625 18.234375 71.710938 19.011719 L 9.328125 70.3125 C 9.070312 70.527344 8.832031 70.765625 8.617188 71.023438 C 8.40625 71.285156 8.21875 71.5625 8.0625 71.859375 C 7.902344 72.15625 7.773438 72.464844 7.679688 72.789062 C 7.582031 73.109375 7.515625 73.441406 7.484375 73.773438 C 7.449219 74.109375 7.449219 74.445312 7.484375 74.78125 C 7.515625 75.113281 7.582031 75.441406 7.679688 75.765625 C 7.777344 76.085938 7.90625 76.394531 8.066406 76.691406 C 8.226562 76.988281 8.410156 77.269531 8.625 77.527344 C 8.839844 77.789062 9.078125 78.023438 9.335938 78.238281 C 9.597656 78.449219 9.875 78.636719 10.171875 78.796875 C 10.46875 78.953125 10.777344 79.082031 11.101562 79.179688 C 11.421875 79.277344 11.753906 79.339844 12.085938 79.375 C 12.421875 79.40625 12.757812 79.40625 13.09375 79.371094 C 13.425781 79.339844 13.753906 79.273438 14.078125 79.175781 C 14.398438 79.078125 14.707031 78.949219 15.003906 78.789062 C 15.300781 78.632812 15.582031 78.445312 15.839844 78.230469 L 74.96875 29.609375 L 134.09375 78.230469 C 134.355469 78.445312 134.632812 78.632812 134.929688 78.789062 C 135.226562 78.949219 135.535156 79.078125 135.859375 79.175781 C 136.179688 79.273438 136.507812 79.339844 136.84375 79.371094 C 137.179688 79.40625 137.511719 79.40625 137.847656 79.375 C 138.183594 79.339844 138.511719 79.277344 138.832031 79.179688 C 139.15625 79.082031 139.464844 78.953125 139.761719 78.796875 C 140.058594 78.636719 140.339844 78.449219 140.597656 78.238281 C 140.859375 78.023438 141.097656 77.789062 141.308594 77.527344 C 141.523438 77.269531 141.710938 76.988281 141.867188 76.691406 C 142.027344 76.394531 142.15625 76.085938 142.253906 75.765625 C 142.351562 75.441406 142.417969 75.113281 142.453125 74.78125 C 142.484375 74.445312 142.484375 74.109375 142.453125 73.773438 C 142.417969 73.441406 142.355469 73.109375 142.257812 72.789062 C 142.160156 72.464844 142.03125 72.15625 141.875 71.859375 C 141.714844 71.5625 141.53125 71.285156 141.316406 71.023438 C 141.101562 70.765625 140.867188 70.527344 140.605469 70.3125 L 78.222656 19.011719 C 77.277344 18.234375 76.191406 17.84375 74.96875 17.84375 Z M 74.96875 42.089844 C 73.742188 42.089844 72.660156 42.476562 71.710938 43.253906 L 23.746094 82.699219 C 23.152344 83.1875 22.695312 83.777344 22.367188 84.46875 C 22.039062 85.164062 21.875 85.890625 21.875 86.660156 L 21.875 132.761719 C 21.875 133.097656 21.910156 133.429688 21.972656 133.761719 C 22.039062 134.089844 22.136719 134.414062 22.265625 134.722656 C 22.394531 135.035156 22.550781 135.328125 22.738281 135.609375 C 22.925781 135.890625 23.140625 136.148438 23.378906 136.386719 C 23.613281 136.625 23.875 136.835938 24.152344 137.023438 C 24.433594 137.210938 24.730469 137.367188 25.039062 137.496094 C 25.351562 137.625 25.671875 137.722656 26 137.789062 C 26.332031 137.855469 26.664062 137.886719 27 137.886719 L 60.839844 137.886719 C 61.175781 137.886719 61.507812 137.855469 61.839844 137.789062 C 62.167969 137.722656 62.488281 137.625 62.800781 137.496094 C 63.109375 137.367188 63.40625 137.210938 63.6875 137.023438 C 63.964844 136.835938 64.222656 136.625 64.460938 136.386719 C 64.699219 136.148438 64.914062 135.890625 65.101562 135.609375 C 65.285156 135.328125 65.445312 135.035156 65.574219 134.722656 C 65.703125 134.414062 65.800781 134.089844 65.867188 133.761719 C 65.929688 133.429688 65.964844 133.097656 65.964844 132.761719 L 65.964844 97.855469 L 83.972656 97.855469 L 83.972656 132.761719 C 83.972656 133.097656 84.003906 133.429688 84.070312 133.761719 C 84.136719 134.089844 84.234375 134.414062 84.363281 134.722656 C 84.488281 135.035156 84.648438 135.328125 84.835938 135.609375 C 85.023438 135.890625 85.234375 136.148438 85.472656 136.386719 C 85.710938 136.625 85.96875 136.835938 86.25 137.023438 C 86.527344 137.210938 86.824219 137.367188 87.136719 137.496094 C 87.445312 137.625 87.765625 137.722656 88.097656 137.789062 C 88.425781 137.855469 88.761719 137.886719 89.097656 137.886719 L 122.933594 137.886719 C 123.269531 137.886719 123.601562 137.855469 123.933594 137.789062 C 124.261719 137.722656 124.585938 137.625 124.894531 137.496094 C 125.207031 137.367188 125.5 137.210938 125.78125 137.023438 C 126.0625 136.835938 126.320312 136.625 126.558594 136.386719 C 126.796875 136.148438 127.007812 135.890625 127.195312 135.609375 C 127.382812 135.328125 127.539062 135.035156 127.667969 134.722656 C 127.796875 134.414062 127.894531 134.089844 127.960938 133.761719 C 128.027344 133.429688 128.058594 133.097656 128.058594 132.761719 L 128.058594 86.660156 C 128.058594 85.890625 127.894531 85.164062 127.570312 84.46875 C 127.242188 83.777344 126.78125 83.1875 126.191406 82.699219 L 78.222656 43.253906 C 77.277344 42.476562 76.191406 42.089844 74.96875 42.089844 Z M 74.96875 42.089844 " fill-opacity="1" fill-rule="nonzero"/></g></svg>